<?xml version="1.0" standalone="no"?>
<!DOCTYPE svg PUBLIC "-//W3C//DTD SVG 20010904//EN"
 "http://www.w3.org/TR/2001/REC-SVG-20010904/DTD/svg10.dtd">
<svg version="1.0" xmlns="http://www.w3.org/2000/svg"
 width="670.000000pt" height="373.000000pt" viewBox="0 0 670.000000 373.000000"
 preserveAspectRatio="xMidYMid meet">

<g transform="translate(0.000000,373.000000) scale(0.100000,-0.100000)"
fill="#000000" stroke="none">
<path d="M2393 3631 c-44 -21 -69 -41 -88 -70 -30 -45 -49 -113 -39 -143 8
-26 58 -21 62 7 15 100 73 155 163 155 74 0 120 -34 143 -105 15 -46 15 -52
-1 -97 -20 -57 -66 -97 -121 -105 -54 -8 -62 -19 -62 -78 l0 -53 -62 -7 c-79
-9 -227 -46 -297 -74 -179 -72 -368 -226 -474 -388 -46 -71 -57 -106 -36 -118
24 -16 55 7 89 67 45 79 187 223 276 281 198 128 419 181 647 157 96 -10 227
-44 286 -74 187 -93 252 -144 358 -276 77 -96 93 -118 93 -128 0 -5 7 -15 15
-22 19 -15 65 -5 65 15 0 30 -120 196 -200 276 -143 144 -388 255 -622 284
-57 7 -58 8 -58 39 0 28 5 34 37 46 55 19 98 57 123 108 18 36 21 56 18 116
-3 68 -6 77 -42 121 -44 53 -121 95 -176 95 -19 0 -63 -13 -97 -29z"/>
<path d="M2240 2795 c0 -69 4 -125 9 -125 5 0 43 14 84 31 60 24 80 28 96 20
26 -14 96 -14 119 0 13 8 35 4 97 -20 44 -17 83 -31 87 -31 5 0 8 57 8 126 0
144 10 135 -100 89 -55 -24 -69 -26 -95 -16 -40 14 -81 14 -107 0 -23 -13 -72
-2 -145 32 -24 10 -45 19 -48 19 -3 0 -5 -56 -5 -125z"/>
<path d="M2043 2877 c-20 -11 -203 -276 -203 -294 0 -4 36 -36 80 -71 44 -35
80 -68 80 -73 0 -6 -38 -46 -85 -91 -47 -44 -82 -84 -79 -89 3 -5 19 -46 35
-91 48 -132 109 -298 136 -368 45 -123 74 -205 85 -240 5 -19 14 -39 18 -45 4
-5 17 -37 28 -70 43 -124 74 -200 87 -214 13 -13 165 -43 174 -34 5 3 -14 112
-60 343 -29 149 -67 351 -73 395 -4 22 -13 72 -21 110 -8 39 -26 133 -40 210
-14 77 -34 185 -45 240 -10 55 -32 166 -47 247 -15 82 -32 148 -38 148 -5 -1
-20 -6 -32 -13z"/>
<path d="M2886 2868 c-7 -39 -44 -236 -71 -383 -43 -231 -74 -395 -126 -670
-10 -55 -30 -163 -44 -240 -14 -77 -35 -183 -45 -235 -11 -52 -20 -107 -20
-121 l0 -26 83 13 c45 8 83 14 84 14 6 0 36 66 48 104 8 22 27 77 43 121 17
44 49 132 72 195 24 63 53 142 65 175 13 33 43 116 68 185 25 69 58 158 73
199 l27 74 -88 82 c-102 94 -104 79 18 170 36 28 67 53 67 56 0 3 -38 64 -85
135 -86 130 -124 174 -150 174 -8 0 -17 -10 -19 -22z"/>
<path d="M3881 2569 c-14 -5 -31 -15 -39 -21 -8 -7 -33 -11 -57 -9 -51 3 -89
-18 -111 -62 -14 -26 -14 -42 -3 -129 l12 -99 66 6 c88 9 298 42 309 49 5 3 1
53 -8 111 -19 117 -32 139 -89 155 -43 12 -49 12 -80 -1z m69 -98 c12 -23 14
-91 3 -91 -5 0 -18 -3 -29 -6 -20 -5 -23 -1 -29 46 -5 40 -4 55 6 61 22 14 38
10 49 -10z m-152 -24 c6 -7 12 -30 14 -52 3 -37 1 -40 -23 -43 -24 -3 -27 1
-33 37 -9 61 13 93 42 58z"/>
<path d="M944 2536 c-12 -49 -2 -61 54 -67 62 -8 66 -11 57 -38 -4 -13 -26
-27 -63 -41 -31 -12 -63 -28 -69 -37 -15 -19 -18 -93 -4 -93 5 0 33 11 63 25
66 31 75 31 103 1 65 -70 202 -37 219 52 13 71 28 174 25 177 -7 6 -297 45
-338 45 -35 0 -42 -4 -47 -24z m280 -104 c3 -5 3 -26 -1 -46 -11 -70 -83 -68
-83 3 0 21 3 41 7 44 9 10 71 9 77 -1z"/>
<path d="M2450 2438 c-26 -28 -25 -53 1 -79 22 -22 66 -20 81 4 15 24 8 66
-14 81 -30 21 -43 20 -68 -6z"/>
<path d="M3677 2138 c-6 -47 2 -58 44 -58 31 0 220 -38 228 -45 11 -12 4 -76
-11 -91 -16 -16 -58 -13 -227 16 -29 6 -57 8 -61 5 -4 -3 -10 -23 -12 -45 -3
-35 -1 -41 17 -45 81 -16 236 -39 263 -39 61 1 118 61 128 136 9 62 -25 134
-70 153 -28 11 -145 34 -252 49 l-41 6 -6 -42z"/>
<path d="M1105 2149 c-66 -11 -135 -22 -154 -25 l-34 -5 6 -52 c11 -90 26
-179 31 -184 3 -3 22 -2 42 1 l37 7 -7 75 -7 74 30 0 c28 0 29 -3 36 -52 9
-68 17 -77 58 -69 l32 7 -3 66 c-3 60 -2 67 18 73 12 4 23 5 26 2 2 -2 10 -35
17 -73 l12 -69 40 3 c22 2 41 5 43 7 2 1 -4 50 -12 108 -9 57 -16 110 -16 116
0 15 -53 13 -195 -10z"/>
<path d="M2450 2080 c-38 -38 -15 -90 39 -90 36 0 51 17 51 57 0 27 -5 35 -26
43 -35 14 -41 13 -64 -10z"/>
<path d="M1098 1823 c-22 -6 -23 -26 -2 -87 15 -44 18 -47 43 -41 40 10 42 17
23 75 -17 54 -28 63 -64 53z"/>
<path d="M3593 1775 c-20 -41 -12 -54 53 -84 24 -12 44 -26 44 -32 0 -9 -52
-110 -66 -128 -2 -2 -29 11 -60 28 -32 17 -61 31 -64 31 -4 0 -15 -16 -26 -35
-23 -43 -18 -49 86 -103 41 -21 105 -55 142 -75 36 -21 73 -37 82 -37 14 0 46
47 46 69 0 5 -29 24 -65 41 l-65 32 33 63 c37 74 50 78 112 40 54 -34 72 -32
92 10 9 19 15 36 12 38 -2 2 -42 24 -89 49 -47 25 -120 64 -162 87 -42 22 -80
41 -83 41 -3 0 -13 -16 -22 -35z"/>
<path d="M2446 1718 c-21 -29 -20 -51 2 -71 39 -35 92 -13 92 38 0 54 -64 76
-94 33z"/>
<path d="M1345 1704 c-35 -21 -180 -104 -251 -142 -29 -16 -29 -21 -6 -61 20
-37 39 -36 99 4 20 14 41 24 47 22 10 -3 33 -37 57 -84 14 -27 24 -28 66 -5
l31 17 -35 60 -35 59 22 18 c17 14 26 16 36 7 8 -6 14 -15 14 -20 0 -5 13 -28
28 -53 l28 -44 35 21 c19 11 35 22 37 23 2 1 -12 28 -30 59 -18 31 -44 77 -57
101 -13 24 -29 44 -35 44 -6 0 -29 -12 -51 -26z"/>
<path d="M1480 1380 c-58 -26 -121 -55 -140 -63 -19 -9 -52 -23 -72 -32 l-37
-17 21 -29 c27 -35 47 -43 83 -29 25 10 32 7 62 -22 48 -46 55 -61 42 -98 -10
-28 -9 -34 17 -61 15 -16 31 -29 36 -29 7 0 40 65 143 284 l37 78 -33 34 c-18
19 -38 34 -43 33 -6 0 -58 -23 -116 -49z m50 -95 c0 -12 -31 -65 -38 -65 -8 0
-35 40 -30 44 24 20 68 33 68 21z"/>
<path d="M3273 1328 c-33 -23 -41 -42 -23 -53 14 -9 83 -115 78 -120 -2 -3
-29 5 -59 16 -140 54 -131 52 -166 34 -54 -30 -58 -21 77 -210 30 -43 67 -91
81 -108 l26 -31 31 25 c17 13 31 29 31 34 0 6 -24 44 -54 85 -53 72 -57 94
-12 71 44 -22 173 -71 187 -71 8 1 26 10 39 20 l24 20 -29 42 c-16 22 -33 48
-39 56 -5 9 -39 54 -73 100 -35 47 -66 91 -69 98 -7 19 -13 18 -50 -8z"/>
<path d="M1762 1188 c-54 -59 -49 -107 18 -188 49 -58 52 -80 11 -80 -30 0
-71 38 -71 66 0 10 -14 14 -45 14 -38 0 -45 -3 -45 -19 0 -78 90 -161 176
-161 54 0 104 53 104 110 0 41 -35 107 -74 139 -26 22 -20 51 10 51 19 0 28
-8 40 -36 15 -35 17 -36 55 -31 23 3 43 8 46 11 12 11 -30 96 -58 121 -42 35
-135 36 -167 3z"/>
<path d="M2077 1093 c-7 -12 -26 -102 -69 -317 -5 -26 -8 -50 -6 -52 2 -2 22
-6 44 -10 l41 -6 12 60 c19 89 18 87 100 67 80 -19 79 -19 56 -105 -8 -30 -13
-55 -12 -56 1 -1 20 -7 42 -13 47 -13 49 -11 65 78 7 36 20 100 30 141 36 153
35 160 -30 160 -26 0 -29 -4 -40 -52 -17 -84 -17 -84 -97 -63 -37 10 -69 19
-71 20 -3 2 14 84 24 116 3 12 -4 19 -23 23 -15 4 -35 9 -45 12 -9 3 -18 1
-21 -3z"/>
<path d="M2818 1085 c-120 -30 -183 -165 -127 -270 32 -62 66 -91 122 -109
102 -31 201 19 245 124 19 47 10 127 -19 173 -47 71 -135 104 -221 82z m121
-111 c87 -73 10 -208 -100 -175 -39 12 -79 61 -79 97 0 28 37 83 63 94 42 17
84 11 116 -16z"/>
<path d="M2490 898 c0 -79 3 -167 6 -195 l7 -53 38 0 c21 0 40 4 43 9 3 5 3
93 -1 195 l-6 186 -44 0 -43 0 0 -142z"/>
</g>
</svg>
